<svg width="90" height="90" viewBox="0 0 90 90" fill="none" xmlns="http://www.w3.org/2000/svg">
<g clip-path="url(#clip0_2766_11248)">
<path d="M90 5.67773V3.04102C89.9991 2.22545 89.6747 1.44355 89.098 0.866861C88.5213 0.290169 87.7394 -0.0342258 86.9238 -0.0351562H3.07617C2.26061 -0.0342258 1.47871 0.290169 0.902018 0.866861C0.325325 1.44355 0.000930481 2.22545 0 3.04102L0 5.67773C0.00105193 6.44754 0.290366 7.18904 0.81094 7.75614C1.33151 8.32324 2.0456 8.67482 2.8125 8.7416V23.7094C2.04575 23.7757 1.33168 24.127 0.811072 24.6938C0.290462 25.2606 0.00108878 26.0019 0 26.7715L0 29.4082C0.00105193 30.178 0.290366 30.9195 0.81094 31.4866C1.33151 32.0537 2.0456 32.4053 2.8125 32.4721V47.4398C2.04575 47.5062 1.33168 47.8574 0.811072 48.4242C0.290462 48.991 0.00108878 49.7323 0 50.5019L0 53.1387C0.00105193 53.9085 0.290366 54.65 0.81094 55.2171C1.33151 55.7842 2.0456 56.1357 2.8125 56.2025V87.365H1.31836C0.968709 87.365 0.633379 87.5039 0.386139 87.7512C0.138898 87.9984 0 88.3337 0 88.6834C0 89.033 0.138898 89.3684 0.386139 89.6156C0.633379 89.8629 0.968709 90.0018 1.31836 90.0018H88.6816C89.0313 90.0018 89.3666 89.8629 89.6139 89.6156C89.8611 89.3684 90 89.033 90 88.6834C90 88.3337 89.8611 87.9984 89.6139 87.7512C89.3666 87.5039 89.0313 87.365 88.6816 87.365H87.1875V56.2025C87.9544 56.1357 88.6685 55.7842 89.1891 55.2171C89.7096 54.65 89.9989 53.9085 90 53.1387V50.5019C89.9989 49.7323 89.7095 48.991 89.1889 48.4242C88.6683 47.8574 87.9543 47.5062 87.1875 47.4398V32.4721C87.9544 32.4053 88.6685 32.0537 89.1891 31.4866C89.7096 30.9195 89.9989 30.178 90 29.4082V26.7715C89.9989 26.0019 89.7095 25.2606 89.1889 24.6938C88.6683 24.127 87.9543 23.7757 87.1875 23.7094V8.7416C87.9544 8.67482 88.6685 8.32324 89.1891 7.75614C89.7096 7.18904 89.9989 6.44754 90 5.67773ZM43.6816 87.365H31.0254V69.4072H43.6816V87.365ZM58.9746 87.365H46.3184V69.4072H58.9746V87.365ZM61.5234 66.7705H28.4766C28.4534 66.7701 28.4313 66.7607 28.4149 66.7443C28.3985 66.7279 28.3891 66.7058 28.3887 66.6826V64.2217C28.3887 64.1984 28.3979 64.176 28.4144 64.1595C28.4309 64.143 28.4533 64.1338 28.4766 64.1338H61.5234C61.5467 64.1338 61.5691 64.143 61.5856 64.1595C61.6021 64.176 61.6113 64.1984 61.6113 64.2217V66.6826C61.6109 66.7058 61.6015 66.7279 61.5851 66.7443C61.5687 66.7607 61.5466 66.7701 61.5234 66.7705ZM84.5508 87.365H61.6131V69.4019C62.3193 69.3787 62.9889 69.0822 63.4808 68.5749C63.9727 68.0676 64.2484 67.3892 64.2498 66.6826V64.2217C64.2489 63.4993 63.9615 62.8069 63.4508 62.2961C62.94 61.7853 62.2475 61.498 61.5252 61.4971H28.4766C27.7542 61.498 27.0618 61.7853 26.551 62.2961C26.0402 62.8069 25.7529 63.4993 25.752 64.2217V66.6826C25.7534 67.3892 26.0291 68.0676 26.521 68.5749C27.0128 69.0822 27.6825 69.3787 28.3887 69.4019V87.365H5.44922V56.2148H84.5508V87.365ZM87.3633 50.5019V53.1387C87.3633 53.2552 87.317 53.367 87.2346 53.4494C87.1522 53.5318 87.0404 53.5781 86.9238 53.5781H3.07617C2.95962 53.5781 2.84785 53.5318 2.76543 53.4494C2.68302 53.367 2.63672 53.2552 2.63672 53.1387V50.5019C2.63672 50.3854 2.68302 50.2736 2.76543 50.1912C2.84785 50.1088 2.95962 50.0625 3.07617 50.0625H86.9238C87.0404 50.0625 87.1522 50.1088 87.2346 50.1912C87.317 50.2736 87.3633 50.3854 87.3633 50.5019ZM5.44922 47.4258V32.4844H19.1602V47.4258H5.44922ZM21.7969 47.4258V32.4844H35.5078V47.4258H21.7969ZM38.1445 47.4258V32.4844H51.8555V47.4258H38.1445ZM54.4922 47.4258V32.4844H68.2031V47.4258H54.4922ZM70.8398 47.4258V32.4844H84.5508V47.4258H70.8398ZM87.3633 26.7715V29.4082C87.3633 29.5248 87.317 29.6365 87.2346 29.7189C87.1522 29.8014 87.0404 29.8477 86.9238 29.8477H3.07617C2.95962 29.8477 2.84785 29.8014 2.76543 29.7189C2.68302 29.6365 2.63672 29.5248 2.63672 29.4082V26.7715C2.63672 26.6549 2.68302 26.5432 2.76543 26.4607C2.84785 26.3783 2.95962 26.332 3.07617 26.332H86.9238C87.0404 26.332 87.1522 26.3783 87.2346 26.4607C87.317 26.5432 87.3633 26.6549 87.3633 26.7715ZM5.44922 23.6953V8.75391H19.1602V23.6953H5.44922ZM21.7969 23.6953V8.75391H35.5078V23.6953H21.7969ZM38.1445 23.6953V8.75391H51.8555V23.6953H38.1445ZM54.4922 23.6953V8.75391H68.2031V23.6953H54.4922ZM70.8398 23.6953V8.75391H84.5508V23.6953H70.8398ZM86.9238 6.11719H3.07617C2.95962 6.11719 2.84785 6.07089 2.76543 5.98847C2.68302 5.90606 2.63672 5.79428 2.63672 5.67773V3.04102C2.63672 2.92447 2.68302 2.81269 2.76543 2.73028C2.84785 2.64786 2.95962 2.60156 3.07617 2.60156H86.9238C87.0404 2.60156 87.1522 2.64786 87.2346 2.73028C87.317 2.81269 87.3633 2.92447 87.3633 3.04102V5.67773C87.3633 5.79428 87.317 5.90606 87.2346 5.98847C87.1522 6.07089 87.0404 6.11719 86.9238 6.11719ZM9.85254 83.5488H23.9062C24.2559 83.5488 24.5912 83.4099 24.8385 83.1627C25.0857 82.9154 25.2246 82.5801 25.2246 82.2305V73.5768C25.2246 73.2271 25.0857 72.8918 24.8385 72.6445C24.5912 72.3973 24.2559 72.2584 23.9062 72.2584H9.85254C9.50289 72.2584 9.16756 72.3973 8.92032 72.6445C8.67308 72.8918 8.53418 73.2271 8.53418 73.5768V82.2305C8.53418 82.5801 8.67308 82.9154 8.92032 83.1627C9.16756 83.4099 9.50289 83.5488 9.85254 83.5488ZM11.1709 74.8951H22.5791V80.9121H11.1709V74.8951ZM66.1025 83.5488H80.1562C80.5059 83.5488 80.8412 83.4099 81.0885 83.1627C81.3357 82.9154 81.4746 82.5801 81.4746 82.2305V73.5768C81.4746 73.2271 81.3357 72.8918 81.0885 72.6445C80.8412 72.3973 80.5059 72.2584 80.1562 72.2584H66.1113C65.7617 72.2584 65.4263 72.3973 65.1791 72.6445C64.9319 72.8918 64.793 73.2271 64.793 73.5768V82.2305C64.793 82.5786 64.9306 82.9126 65.176 83.1596C65.4213 83.4066 65.7544 83.5465 66.1025 83.5488ZM67.4209 74.8951H78.8291V80.9121H67.4209V74.8951Z" fill="#21255C"/>
</g>
<defs>
<clipPath id="clip0_2766_11248">
<rect width="90" height="90" fill="white"/>
</clipPath>
</defs>
</svg>
