<svg width="21" height="20" viewBox="0 0 21 20" fill="none" xmlns="http://www.w3.org/2000/svg">
<path d="M14.4531 13.1787L15.5781 12.0537C15.7539 11.8779 16.0703 12.0186 16.0703 12.2646V17.3623C16.0703 18.3115 15.2969 19.0498 14.3828 19.0498H2.00781C1.05859 19.0498 0.320312 18.3115 0.320312 17.3623V4.9873C0.320312 4.07324 1.05859 3.2998 2.00781 3.2998H11.6055C11.8516 3.2998 11.9922 3.61621 11.8164 3.79199L10.6914 4.91699C10.6211 4.9873 10.5508 4.9873 10.4805 4.9873H2.00781V17.3623H14.3828V13.3896C14.3828 13.3193 14.3828 13.249 14.4531 13.1787ZM19.9375 6.1123L10.7266 15.3232L7.52734 15.6748C6.61328 15.7803 5.83984 15.0068 5.94531 14.0928L6.29688 10.8936L15.5078 1.68262C16.3164 0.874023 17.6172 0.874023 18.4258 1.68262L19.9375 3.19434C20.7461 4.00293 20.7461 5.30371 19.9375 6.1123ZM16.4922 7.16699L14.4531 5.12793L7.91406 11.667L7.63281 13.9873L9.95312 13.7061L16.4922 7.16699ZM18.7422 4.38965L17.2305 2.87793C17.0898 2.70215 16.8438 2.70215 16.7031 2.87793L15.6484 3.93262L17.6875 6.00684L18.7773 4.91699C18.918 4.74121 18.918 4.53027 18.7422 4.38965Z" fill="#203B7D"/>
</svg>
