<svg width="20" height="16" viewBox="0 0 20 16" fill="none" xmlns="http://www.w3.org/2000/svg">
<path d="M7.727 1.96827L9.754 3.99527C9.97678 4.21807 10.2789 4.34325 10.594 4.34327H17.719C17.797 4.34327 17.8742 4.35864 17.9463 4.38849C18.0184 4.41834 18.0839 4.46209 18.139 4.51725C18.1942 4.57241 18.2379 4.63789 18.2678 4.70996C18.2976 4.78203 18.313 4.85927 18.313 4.93727V13.2503C18.313 13.3283 18.2976 13.4055 18.2678 13.4776C18.2379 13.5497 18.1942 13.6151 18.139 13.6703C18.0839 13.7255 18.0184 13.7692 17.9463 13.7991C17.8742 13.8289 17.797 13.8443 17.719 13.8443H2.281C2.12346 13.8443 1.97238 13.7817 1.86098 13.6703C1.74958 13.5589 1.687 13.4078 1.687 13.2503V2.56127C1.687 2.40373 1.74958 2.25265 1.86098 2.14125C1.97238 2.02986 2.12346 1.96727 2.281 1.96727L7.727 1.96827ZM2.281 0.780273C1.80865 0.780273 1.35565 0.967914 1.02164 1.30192C0.687641 1.63592 0.5 2.08892 0.5 2.56127L0.5 13.2493C0.5 13.7216 0.687641 14.1746 1.02164 14.5086C1.35565 14.8426 1.80865 15.0303 2.281 15.0303H17.719C18.1914 15.0303 18.6444 14.8426 18.9784 14.5086C19.3124 14.1746 19.5 13.7216 19.5 13.2493V4.93727C19.5 4.46492 19.3124 4.01192 18.9784 3.67792C18.6444 3.34391 18.1914 3.15627 17.719 3.15627H10.594L8.566 1.13027C8.34322 0.907475 8.04107 0.782296 7.726 0.782273L2.281 0.780273Z" fill="#8294AE"/>
</svg>
