<svg width="16" height="17" viewBox="0 0 16 17" fill="none" xmlns="http://www.w3.org/2000/svg">
<path d="M7.59219 6.1377C8.34219 6.35645 9.06094 6.66895 9.87344 6.85645V8.98145C9.12344 8.7627 8.40469 8.4502 7.59219 8.2627V6.1377ZM14.5609 2.29395C15.2172 2.0127 15.9984 2.48145 15.9672 3.2002V10.7939C15.9672 11.1377 15.8109 11.4502 15.5609 11.6377C14.4359 12.3877 13.2172 12.9189 11.7172 12.9189C9.62344 12.9189 8.24844 11.8252 6.56094 11.8252C4.96719 11.8252 3.87344 12.1377 2.99844 12.5127V15.4502C2.99844 15.8877 2.65469 16.2002 2.24844 16.2002H1.74844C1.31094 16.2002 0.998438 15.8877 0.998438 15.4502V3.3877C0.529688 3.0752 0.248438 2.54395 0.248438 1.9502C0.248438 0.981445 1.06094 0.168945 2.06094 0.200195C2.93594 0.262695 3.68594 0.950195 3.71719 1.85645C3.74844 2.10645 3.71719 2.35645 3.62344 2.5752C4.27969 2.35645 4.96719 2.2002 5.74844 2.2002C7.84219 2.2002 9.24844 3.29395 10.9047 3.29395C12.1859 3.29395 13.4984 2.79395 14.5609 2.29395ZM5.27969 10.3877V8.16895C4.46719 8.23145 3.81094 8.41895 2.99844 8.7002V10.9189C3.71719 10.6377 4.46719 10.4814 5.27969 10.3877ZM14.4984 6.16895V3.98145C13.8109 4.2627 13.0297 4.54395 12.1859 4.66895V6.91895C11.3734 7.0752 10.6234 7.0127 9.87344 6.85645V4.7002C9.06094 4.5752 8.31094 4.2627 7.59219 4.04395V6.1377C6.81094 5.91895 6.12344 5.85645 5.27969 5.98145V3.73145C4.56094 3.79395 4.02969 4.04395 2.99844 4.41895V6.6377C3.90469 6.29395 4.59219 6.0752 5.27969 5.98145V8.16895C6.31094 8.0752 6.96719 8.1377 7.59219 8.2627V10.4189C8.40469 10.5752 9.12344 10.8564 9.87344 11.0752V8.98145C10.6859 9.2002 11.3422 9.2627 12.1859 9.1377V11.3877C12.9672 11.3252 13.6859 11.0439 14.4984 10.5439V8.3252C13.7797 8.79395 12.9672 9.04395 12.1859 9.1377V6.91895C13.0297 6.79395 13.7484 6.48145 14.4984 6.16895Z" fill="#7A8DA8"/>
</svg>
