<svg width="981" height="1024" viewBox="0 0 981 1024" fill="none" xmlns="http://www.w3.org/2000/svg">
<path fill-rule="evenodd" clip-rule="evenodd" d="M1090.99 724.722C1140.79 646.88 1122.36 549.752 1137.6 459.863C1151.25 379.271 1210.05 294.108 1176.18 222.005C1141.61 148.377 1086 32.736 1026 -21.5C968.515 -73.4673 899.012 -38.2582 836.912 -84.6961C756.981 -144.469 666.782 -210.225 564.826 -200.717C461.042 -191.038 362.956 -120.06 299.71 -34.5986C238.68 47.8679 222.094 155.653 227.103 255.631C231.439 342.191 316.492 401.416 325.857 487.342C337.752 596.482 241.986 714.043 287.77 812.274C352.001 1056.5 -89.0411 1061.48 17.0009 1077C120.962 1092.21 806.361 1156.57 903.999 1111C992.208 1069.83 1038.3 807.094 1090.99 724.722Z" fill="url(#paint0_linear_2478_17060)" fill-opacity="0.15"/>
<defs>
<linearGradient id="paint0_linear_2478_17060" x1="257.034" y1="803.086" x2="992.256" y2="36.9142" gradientUnits="userSpaceOnUse">
<stop stop-color="#794A8B"/>
<stop offset="0.5" stop-color="#E62F68"/>
<stop offset="1" stop-color="#E95A2E"/>
</linearGradient>
</defs>
</svg>
