<svg width="95" height="90" viewBox="0 0 95 90" fill="none" xmlns="http://www.w3.org/2000/svg">
<path d="M19.6032 0C13.7894 0 9.04762 4.7168 9.04762 10.5C9.04762 16.2832 13.7894 21 19.6032 21C25.417 21 30.1587 16.2832 30.1587 10.5C30.1587 4.7168 25.417 0 19.6032 0ZM31.6667 1.5L33.1746 4.5H88.9683V61.5H90.4762C91.3067 61.5 91.9841 62.1738 91.9841 63V64.5H34.6825V67.5H95V63C95 61.043 93.7395 59.3789 91.9841 58.7578V1.5H31.6667ZM19.6032 3C23.7853 3 27.1429 6.33984 27.1429 10.5C27.1429 14.6602 23.7853 18 19.6032 18C15.421 18 12.0635 14.6602 12.0635 10.5C12.0635 6.33984 15.421 3 19.6032 3ZM9.04762 24C4.07025 24 0 28.0488 0 33V57.75C0 60.6328 2.37971 63 5.27778 63C6.09654 63 6.84462 62.7773 7.53968 62.4375V67.5H10.5556V57.75H7.53968C7.53968 59.0098 6.54421 60 5.27778 60C4.01135 60 3.01587 59.0098 3.01587 57.75V33C3.01587 29.6719 5.70188 27 9.04762 27H14.2253L19.6032 35.9121L24.9811 27H56.5476C57.814 27 58.8095 27.9902 58.8095 29.25C58.8095 30.5098 57.814 31.5 56.5476 31.5H28.6508V67.5H31.6667V34.5H56.5476C59.4457 34.5 61.8254 32.1328 61.8254 29.25C61.8254 26.3672 59.4457 24 56.5476 24H23.2729L19.6032 30.0879L15.9335 24H9.04762ZM9.04762 34.5C8.21708 34.5 7.53968 35.1738 7.53968 36C7.53968 36.8262 8.21708 37.5 9.04762 37.5C9.87816 37.5 10.5556 36.8262 10.5556 36C10.5556 35.1738 9.87816 34.5 9.04762 34.5ZM9.04762 40.5C8.21708 40.5 7.53968 41.1738 7.53968 42C7.53968 42.8262 8.21708 43.5 9.04762 43.5C9.87816 43.5 10.5556 42.8262 10.5556 42C10.5556 41.1738 9.87816 40.5 9.04762 40.5ZM9.04762 46.5C8.21708 46.5 7.53968 47.1738 7.53968 48C7.53968 48.8262 8.21708 49.5 9.04762 49.5C9.87816 49.5 10.5556 48.8262 10.5556 48C10.5556 47.1738 9.87816 46.5 9.04762 46.5ZM9.04762 52.5C8.21708 52.5 7.53968 53.1738 7.53968 54C7.53968 54.8262 8.21708 55.5 9.04762 55.5C9.87816 55.5 10.5556 54.8262 10.5556 54C10.5556 53.1738 9.87816 52.5 9.04762 52.5ZM36.1905 58.5C35.3599 58.5 34.6825 59.1738 34.6825 60C34.6825 60.8262 35.3599 61.5 36.1905 61.5C37.021 61.5 37.6984 60.8262 37.6984 60C37.6984 59.1738 37.021 58.5 36.1905 58.5ZM42.2222 58.5C41.3917 58.5 40.7143 59.1738 40.7143 60C40.7143 60.8262 41.3917 61.5 42.2222 61.5C43.0528 61.5 43.7302 60.8262 43.7302 60C43.7302 59.1738 43.0528 58.5 42.2222 58.5ZM48.254 58.5C47.4234 58.5 46.746 59.1738 46.746 60C46.746 60.8262 47.4234 61.5 48.254 61.5C49.0845 61.5 49.7619 60.8262 49.7619 60C49.7619 59.1738 49.0845 58.5 48.254 58.5ZM54.2857 58.5C53.4552 58.5 52.7778 59.1738 52.7778 60C52.7778 60.8262 53.4552 61.5 54.2857 61.5C55.1163 61.5 55.7936 60.8262 55.7936 60C55.7936 59.1738 55.1163 58.5 54.2857 58.5ZM60.3175 58.5C59.4869 58.5 58.8095 59.1738 58.8095 60C58.8095 60.8262 59.4869 61.5 60.3175 61.5C61.148 61.5 61.8254 60.8262 61.8254 60C61.8254 59.1738 61.148 58.5 60.3175 58.5ZM66.3492 58.5C65.5187 58.5 64.8413 59.1738 64.8413 60C64.8413 60.8262 65.5187 61.5 66.3492 61.5C67.1797 61.5 67.8571 60.8262 67.8571 60C67.8571 59.1738 67.1797 58.5 66.3492 58.5ZM72.381 58.5C71.5504 58.5 70.873 59.1738 70.873 60C70.873 60.8262 71.5504 61.5 72.381 61.5C73.2115 61.5 73.8889 60.8262 73.8889 60C73.8889 59.1738 73.2115 58.5 72.381 58.5ZM78.4127 58.5C77.5822 58.5 76.9048 59.1738 76.9048 60C76.9048 60.8262 77.5822 61.5 78.4127 61.5C79.2432 61.5 79.9206 60.8262 79.9206 60C79.9206 59.1738 79.2432 58.5 78.4127 58.5ZM84.4444 58.5C83.6139 58.5 82.9365 59.1738 82.9365 60C82.9365 60.8262 83.6139 61.5 84.4444 61.5C85.275 61.5 85.9524 60.8262 85.9524 60C85.9524 59.1738 85.275 58.5 84.4444 58.5ZM10.5556 72C5.57819 72 1.50794 76.0488 1.50794 81C1.50794 85.9512 5.57819 90 10.5556 90C13.6951 90 16.4695 88.3887 18.0952 85.957C19.721 88.3887 22.4953 90 25.6349 90C28.7745 90 31.5489 88.3887 33.1746 85.957C34.8003 88.3887 37.5747 90 40.7143 90C43.8539 90 46.6282 88.3887 48.254 85.957C49.8797 88.3887 52.6541 90 55.7936 90C58.9332 90 61.7076 88.3887 63.3333 85.957C64.9591 88.3887 67.7334 90 70.873 90C74.0126 90 76.7869 88.3887 78.4127 85.957C80.0384 88.3887 82.8128 90 85.9524 90C90.9297 90 95 85.9512 95 81C95 76.0488 90.9297 72 85.9524 72C82.8128 72 80.0384 73.6113 78.4127 76.043C76.7869 73.6113 74.0126 72 70.873 72C67.7334 72 64.9591 73.6113 63.3333 76.043C61.7076 73.6113 58.9332 72 55.7936 72C52.6541 72 49.8797 73.6113 48.254 76.043C46.6282 73.6113 43.8539 72 40.7143 72C37.5747 72 34.8003 73.6113 33.1746 76.043C31.5489 73.6113 28.7745 72 25.6349 72C22.4953 72 19.721 73.6113 18.0952 76.043C16.4695 73.6113 13.6951 72 10.5556 72ZM10.5556 75C13.9072 75 16.5873 77.666 16.5873 81C16.5873 84.334 13.9072 87 10.5556 87C7.20393 87 4.52381 84.334 4.52381 81C4.52381 77.666 7.20393 75 10.5556 75ZM25.6349 75C28.9865 75 31.6667 77.666 31.6667 81C31.6667 84.334 28.9865 87 25.6349 87C22.2833 87 19.6032 84.334 19.6032 81C19.6032 77.666 22.2833 75 25.6349 75ZM40.7143 75C44.0659 75 46.746 77.666 46.746 81C46.746 84.334 44.0659 87 40.7143 87C37.3627 87 34.6825 84.334 34.6825 81C34.6825 77.666 37.3627 75 40.7143 75ZM55.7936 75C59.1453 75 61.8254 77.666 61.8254 81C61.8254 84.334 59.1453 87 55.7936 87C52.442 87 49.7619 84.334 49.7619 81C49.7619 77.666 52.442 75 55.7936 75ZM70.873 75C74.2246 75 76.9048 77.666 76.9048 81C76.9048 84.334 74.2246 87 70.873 87C67.5214 87 64.8413 84.334 64.8413 81C64.8413 77.666 67.5214 75 70.873 75ZM85.9524 75C89.304 75 91.9841 77.666 91.9841 81C91.9841 84.334 89.304 87 85.9524 87C82.6008 87 79.9206 84.334 79.9206 81C79.9206 77.666 82.6008 75 85.9524 75Z" fill="#21255C"/>
</svg>
