<svg width="14" height="18" viewBox="0 0 14 18" fill="none" xmlns="http://www.w3.org/2000/svg">
<path d="M11.875 7.21875C11.875 5.8015 11.312 4.4423 10.3099 3.44015C9.3077 2.438 7.9485 1.875 6.53125 1.875C5.114 1.875 3.7548 2.438 2.75265 3.44015C1.7505 4.4423 1.1875 5.8015 1.1875 7.21875C1.1875 9.41088 2.94144 12.268 6.53125 15.6904C10.1211 12.268 11.875 9.41088 11.875 7.21875ZM6.53125 17.3125C2.17669 13.3546 0 9.98919 0 7.21875C0 5.48656 0.688112 3.82531 1.91296 2.60046C3.13781 1.37561 4.79906 0.6875 6.53125 0.6875C8.26344 0.6875 9.9247 1.37561 11.1495 2.60046C12.3744 3.82531 13.0625 5.48656 13.0625 7.21875C13.0625 9.98919 10.8858 13.3546 6.53125 17.3125Z" fill="#21255C"/>
<path d="M6.53125 9C7.00367 9 7.45673 8.81233 7.79078 8.47828C8.12483 8.14423 8.3125 7.69117 8.3125 7.21875C8.3125 6.74633 8.12483 6.29327 7.79078 5.95922C7.45673 5.62517 7.00367 5.4375 6.53125 5.4375C6.05883 5.4375 5.60577 5.62517 5.27172 5.95922C4.93767 6.29327 4.75 6.74633 4.75 7.21875C4.75 7.69117 4.93767 8.14423 5.27172 8.47828C5.60577 8.81233 6.05883 9 6.53125 9ZM6.53125 10.1875C5.74389 10.1875 4.98878 9.87472 4.43203 9.31797C3.87528 8.76122 3.5625 8.00611 3.5625 7.21875C3.5625 6.43139 3.87528 5.67628 4.43203 5.11953C4.98878 4.56278 5.74389 4.25 6.53125 4.25C7.31861 4.25 8.07372 4.56278 8.63047 5.11953C9.18722 5.67628 9.5 6.43139 9.5 7.21875C9.5 8.00611 9.18722 8.76122 8.63047 9.31797C8.07372 9.87472 7.31861 10.1875 6.53125 10.1875Z" fill="#21255C"/>
</svg>
