<svg width="19" height="20" viewBox="0 0 19 20" fill="none" xmlns="http://www.w3.org/2000/svg">
<g clip-path="url(#clip0_2544_11771)">
<path d="M15.8531 19.5H3.14688C2.06625 19.5 1.1875 18.6213 1.1875 17.5406V8.39688C1.1875 7.31625 2.06625 6.4375 3.14688 6.4375H15.8531C16.9338 6.4375 17.8125 7.31625 17.8125 8.39688V17.5288C17.8125 18.6094 16.9338 19.4881 15.8531 19.4881V19.5ZM3.14688 7.625C2.71938 7.625 2.375 7.96938 2.375 8.39688V17.5288C2.375 17.9563 2.71938 18.3006 3.14688 18.3006H15.8531C16.2806 18.3006 16.625 17.9563 16.625 17.5288V8.39688C16.625 7.96938 16.2806 7.625 15.8531 7.625H3.14688Z" fill="#21255C"/>
<path d="M14.8919 7.625H4.10938V5.89125C4.10938 2.9225 6.53187 0.5 9.50063 0.5C12.4694 0.5 14.8919 2.9225 14.8919 5.89125V7.625ZM5.29688 6.4375H13.7044V5.89125C13.7044 3.57562 11.8162 1.6875 9.50063 1.6875C7.185 1.6875 5.29688 3.57562 5.29688 5.89125V6.4375Z" fill="#21255C"/>
<path d="M14.25 14.1562C14.9058 14.1562 15.4375 13.6246 15.4375 12.9688C15.4375 12.3129 14.9058 11.7812 14.25 11.7812C13.5942 11.7812 13.0625 12.3129 13.0625 12.9688C13.0625 13.6246 13.5942 14.1562 14.25 14.1562Z" fill="#21255C"/>
<path d="M9.5 14.1562C10.1558 14.1562 10.6875 13.6246 10.6875 12.9688C10.6875 12.3129 10.1558 11.7812 9.5 11.7812C8.84416 11.7812 8.3125 12.3129 8.3125 12.9688C8.3125 13.6246 8.84416 14.1562 9.5 14.1562Z" fill="#21255C"/>
<path d="M4.75 14.1562C5.40584 14.1562 5.9375 13.6246 5.9375 12.9688C5.9375 12.3129 5.40584 11.7812 4.75 11.7812C4.09416 11.7812 3.5625 12.3129 3.5625 12.9688C3.5625 13.6246 4.09416 14.1562 4.75 14.1562Z" fill="#21255C"/>
</g>
<defs>
<clipPath id="clip0_2544_11771">
<rect width="19" height="19" fill="white" transform="translate(0 0.5)"/>
</clipPath>
</defs>
</svg>
