<svg width="21" height="25" viewBox="0 0 21 25" fill="none" xmlns="http://www.w3.org/2000/svg">
<path d="M3.95321 4.9248C2.95867 4.92498 2.00493 5.32013 1.30169 6.02337C0.598448 6.72661 0.203296 7.68035 0.203125 8.67489L0.203125 16.1744C0.203467 17.1688 0.598694 18.1224 1.30192 18.8255C2.00514 19.5286 2.95879 19.9237 3.95321 19.9238H7.23493C7.35921 19.9235 7.47831 19.874 7.56619 19.7861C7.65407 19.6982 7.70359 19.5791 7.70393 19.4548V18.5175C7.70359 18.3932 7.65407 18.2741 7.56619 18.1862C7.47831 18.0983 7.35921 18.0488 7.23493 18.0485H3.95321C3.45605 18.0485 2.97924 17.8511 2.62758 17.4997C2.27592 17.1482 2.07818 16.6716 2.07784 16.1744V8.67489C2.07801 8.17773 2.27558 7.70099 2.62712 7.34945C2.97866 6.99791 3.45541 6.80034 3.95256 6.80017H7.23493C7.35921 6.79983 7.47831 6.75031 7.56619 6.66242C7.65407 6.57454 7.70359 6.45545 7.70393 6.33117V5.39381C7.70359 5.26952 7.65407 5.15043 7.56619 5.06255C7.47831 4.97467 7.35921 4.92515 7.23493 4.9248H3.95321ZM12.9765 5.68669L12.2107 6.45245C12.1664 6.49623 12.1313 6.54851 12.1076 6.60615C12.0839 6.66379 12.072 6.72562 12.0728 6.78794C12.0735 6.85027 12.0868 6.9118 12.1118 6.96888C12.1368 7.02596 12.1731 7.0774 12.2185 7.12015L16.6395 11.4083H6.9214C6.79712 11.4086 6.67802 11.4581 6.59014 11.546C6.50226 11.6339 6.45274 11.753 6.4524 11.8773V12.974C6.45274 13.0982 6.50226 13.2173 6.59014 13.3052C6.67802 13.3931 6.79712 13.4426 6.9214 13.443H16.6395L12.2217 17.7246C12.1771 17.7678 12.1416 17.8194 12.117 17.8765C12.0925 17.9335 12.0795 17.9948 12.0788 18.0569C12.078 18.1189 12.0896 18.1805 12.1128 18.2381C12.136 18.2957 12.1704 18.3481 12.214 18.3923L12.9765 19.1581C13.0201 19.2017 13.0718 19.2363 13.1287 19.26C13.1857 19.2836 13.2468 19.2957 13.3084 19.2957C13.3701 19.2957 13.4311 19.2836 13.4881 19.26C13.545 19.2363 13.5968 19.2017 13.6403 19.1581L20.0618 12.752C20.1055 12.7085 20.1401 12.6567 20.1637 12.5998C20.1873 12.5428 20.1995 12.4818 20.1995 12.4201C20.1995 12.3585 20.1873 12.2974 20.1637 12.2405C20.1401 12.1835 20.1055 12.1318 20.0618 12.0882L13.6403 5.68218C13.5513 5.59559 13.4317 5.54752 13.3075 5.54837C13.1833 5.54921 13.0644 5.5989 12.9765 5.68669Z" fill="#7A8DA8"/>
</svg>
