<svg width="20" height="19" viewBox="0 0 20 19" fill="none" xmlns="http://www.w3.org/2000/svg">
<path d="M10 1.188C11.102 1.18879 12.1586 1.62691 12.9379 2.40614C13.7171 3.18537 14.1552 4.242 14.156 5.344C14.1552 6.446 13.7171 7.50263 12.9379 8.28186C12.1586 9.06109 11.102 9.49921 10 9.5C8.898 9.49921 7.84137 9.06109 7.06214 8.28186C6.28291 7.50263 5.84479 6.446 5.844 5.344C5.84479 4.242 6.28291 3.18537 7.06214 2.40614C7.84137 1.62691 8.898 1.18879 10 1.188ZM14.75 13.063C15.6944 13.0643 16.5997 13.44 17.2676 14.1077C17.9355 14.7754 18.3114 15.6806 18.313 16.625V17.813H1.688V16.625C1.68959 15.6808 2.06538 14.7757 2.73304 14.108C3.4007 13.4404 4.30579 13.0646 5.25 13.063C8.404 13.063 7.75 13.657 10 13.657C12.25 13.657 11.592 13.063 14.75 13.063ZM10 0C8.58276 0.000265127 7.22365 0.563378 6.22151 1.56551C5.21938 2.56765 4.65627 3.92676 4.656 5.344C4.65627 6.76124 5.21938 8.12035 6.22151 9.12249C7.22365 10.1246 8.58276 10.6877 10 10.688C11.4172 10.6877 12.7763 10.1246 13.7785 9.12249C14.7806 8.12035 15.3437 6.76124 15.344 5.344C15.3437 3.92676 14.7806 2.56765 13.7785 1.56551C12.7763 0.563378 11.4172 0.000265127 10 0ZM14.75 11.875C11.321 11.875 12.115 12.469 10 12.469C7.885 12.469 8.675 11.875 5.25 11.875C3.99022 11.875 2.78204 12.3754 1.89124 13.2662C1.00045 14.157 0.5 15.3652 0.5 16.625V17.813C0.499869 17.969 0.530515 18.1235 0.590183 18.2676C0.649851 18.4118 0.737369 18.5427 0.847725 18.653C0.95808 18.7632 1.0891 18.8507 1.23329 18.9102C1.37748 18.9697 1.532 19.0003 1.688 19H18.313C18.4689 19.0001 18.6233 18.9695 18.7674 18.9099C18.9115 18.8503 19.0424 18.7629 19.1526 18.6526C19.2629 18.5424 19.3503 18.4115 19.4099 18.2674C19.4695 18.1233 19.5001 17.9689 19.5 17.813V16.625C19.5 15.3652 18.9996 14.157 18.1088 13.2662C17.218 12.3754 16.0098 11.875 14.75 11.875Z" fill="#203B7D"/>
</svg>
