<svg width="20" height="19" viewBox="0 0 20 19" fill="none" xmlns="http://www.w3.org/2000/svg">
<path d="M9.99949 17.5752C9.70124 17.5748 9.4153 17.4562 9.2044 17.2453C8.9935 17.0344 8.87486 16.7485 8.87449 16.4502H7.74949C7.75041 17.0467 7.98775 17.6184 8.40951 18.0402C8.83127 18.4619 9.40304 18.6993 9.99949 18.7002C10.5959 18.6993 11.1677 18.4619 11.5895 18.0402C12.0112 17.6184 12.2486 17.0467 12.2495 16.4502H11.1245C11.1241 16.7485 11.0055 17.0344 10.7946 17.2453C10.5837 17.4562 10.2977 17.5748 9.99949 17.5752ZM17.3608 12.4708C16.3777 11.5348 15.6259 10.5559 15.6259 7.23558C15.5977 5.87345 15.0637 4.57055 14.1277 3.58055C13.1917 2.59055 11.9207 1.98432 10.5623 1.87989V1.26304C10.5624 1.1891 10.5479 1.11587 10.5197 1.04754C10.4914 0.979213 10.45 0.91713 10.3977 0.864847C10.3454 0.812563 10.2833 0.771108 10.215 0.742855C10.1467 0.714602 10.0734 0.700105 9.99949 0.700196C9.92561 0.700196 9.85245 0.714759 9.78421 0.743053C9.71596 0.771347 9.65395 0.812817 9.60174 0.865091C9.54953 0.917365 9.50814 0.979418 9.47993 1.0477C9.45172 1.11599 9.43725 1.18916 9.43734 1.26304V1.88058C8.07892 1.98484 6.80792 2.5909 5.8718 3.58077C4.93568 4.57064 4.40144 5.87346 4.37311 7.23558C4.37311 10.5552 3.62126 11.5348 2.63818 12.4708C2.39915 12.6964 2.2336 12.9888 2.1631 13.3099C2.09259 13.6309 2.12039 13.9658 2.24288 14.2708C2.36815 14.584 2.58492 14.8521 2.8649 15.0402C3.14488 15.2283 3.47505 15.3276 3.81234 15.3252H16.1873C16.5239 15.3269 16.8533 15.2273 17.1325 15.0394C17.4118 14.8515 17.6281 14.5839 17.7533 14.2715C17.8764 13.9667 17.9048 13.6318 17.8348 13.3106C17.7647 12.9894 17.5996 12.6968 17.3608 12.4708ZM16.1839 14.2016H3.81234C3.70431 14.2066 3.59732 14.1786 3.50554 14.1214C3.41375 14.0643 3.34149 13.9806 3.29833 13.8814C3.25517 13.7823 3.24315 13.6723 3.26385 13.5662C3.28455 13.4601 3.337 13.3627 3.41426 13.287C4.63965 12.1205 5.49811 10.8141 5.49811 7.23766C5.51212 6.66056 5.63967 6.09188 5.87348 5.56408C6.10728 5.03629 6.44276 4.55971 6.86076 4.16158C7.27876 3.76345 7.77109 3.45155 8.30964 3.2437C8.84818 3.03585 9.4224 2.93611 9.99949 2.9502C11.1644 2.92213 12.2928 3.35776 13.1366 4.16134C13.9804 4.96493 14.4706 6.07069 14.4995 7.23558C14.4995 10.7989 15.3503 12.1115 16.5833 13.285C16.6607 13.3605 16.7133 13.4577 16.7342 13.5637C16.7551 13.6698 16.7433 13.7797 16.7004 13.8789C16.6575 13.9781 16.5854 14.0619 16.4938 14.1193C16.4022 14.1767 16.2953 14.2049 16.1873 14.2002L16.1839 14.2016Z" fill="#7A8DA8"/>
</svg>
