<svg width="718" height="448" viewBox="0 0 718 448" fill="none" xmlns="http://www.w3.org/2000/svg">
<g clip-path="url(#clip0_2478_17081)">
<mask id="mask0_2478_17081" style="mask-type:luminance" maskUnits="userSpaceOnUse" x="0" y="0" width="718" height="448">
<path d="M718 0H0V448H718V0Z" fill="white"/>
</mask>
<g mask="url(#mask0_2478_17081)">
<path d="M89.3298 403.607C89.3298 403.607 26.4325 367.126 63.3127 273.699C87.3525 212.801 130.45 132.086 208.806 125.888C287.331 119.677 377.175 46.4839 446.769 43.4707C504.65 40.9645 591.323 61.9497 662.707 206.501C701.542 285.194 718.59 363.502 644.131 403.788L89.3298 403.607Z" fill="#F8F0FF"/>
<path d="M282.374 140.731C277.331 138.088 269.658 137.73 268.411 137.563C253.495 135.562 244.517 157.201 243.989 163.758C243.015 175.843 236.611 177.686 227.597 185.255C209.523 200.431 214.823 218.066 224.706 224.619C230.636 228.551 241.088 224.618 241.088 224.618C241.236 224.722 269.673 208.748 283.691 201.043C304.705 198.06 295.224 147.468 282.374 140.731Z" fill="#233862"/>
<path d="M303.009 402.387L303.164 402.384C304.427 402.361 305.402 401.33 305.284 400.144L296.857 316.129L289.504 316.784L301.604 401.251C301.698 401.911 302.303 402.4 303.009 402.387Z" fill="#8BB4F4"/>
<path d="M221.866 402.387L221.712 402.384C220.448 402.361 219.473 401.33 219.592 400.144L228.018 316.129L235.371 316.784L223.272 401.251C223.177 401.911 222.572 402.4 221.866 402.387Z" fill="#8BB4F4"/>
<path d="M362.454 402.387L362.609 402.384C363.872 402.361 364.848 401.33 364.729 400.144L356.302 316.129L348.949 316.784L361.049 401.251C361.143 401.911 361.748 402.4 362.454 402.387Z" fill="#8BB4F4"/>
<path d="M224.376 303.908L209.418 230.166C207.498 220.182 215.786 211.052 226.546 211.298L255.392 211.955C265.344 212.182 273.996 218.831 276.762 228.378L298.646 303.908H224.376Z" fill="#8BB4F4"/>
<path d="M233.427 303.908L218.469 230.166C216.549 220.182 224.836 211.052 235.597 211.298L264.443 211.955C274.395 212.182 283.047 218.831 285.813 228.378L307.697 303.908H233.427Z" fill="#8BB4F4"/>
<path d="M228.548 317.358H342.678C344.971 317.358 346.847 315.485 346.847 313.195V308.07C346.847 305.781 344.971 303.908 342.678 303.908H224.379V313.195C224.379 315.485 226.255 317.358 228.548 317.358Z" fill="#8BB4F4"/>
<path d="M282.105 317.358H354.86C356.707 317.358 358.218 315.849 358.218 314.005V307.261C358.218 305.417 356.707 303.908 354.86 303.908H282.105C280.257 303.908 278.746 305.417 278.746 307.261V314.005C278.746 315.849 280.257 317.358 282.105 317.358Z" fill="#8BB4F4"/>
<path d="M190.324 302.948V305.463C190.324 306.344 190.038 307.064 189.689 307.064H97.7278C97.3794 307.064 97.0938 306.344 97.0938 305.463V302.948C97.0938 302.068 97.3794 301.348 97.7278 301.348H189.689C190.038 301.348 190.324 302.068 190.324 302.948Z" fill="#9ABEE1"/>
<path d="M190.324 302.948V305.463C190.324 306.344 190.062 307.064 189.742 307.064H116.734C116.415 307.064 116.152 306.344 116.152 305.463V302.948C116.152 302.068 116.415 301.348 116.734 301.348H189.742C190.062 301.348 190.324 302.068 190.324 302.948Z" fill="#B9D3F4"/>
<path d="M167.049 402.064H101.762V307.064H167.049V402.064Z" fill="#C7DBF4"/>
<path d="M185.346 402.064H120.059V307.064H185.346V402.064Z" fill="#DFEBFC"/>
<path d="M181.837 396.819H123.566V309.748H181.837V396.819ZM124.196 396.191H181.208V310.376H124.196V396.191Z" fill="#B7D2F3"/>
<path d="M181.52 339.18H123.879V338.552H181.52V339.18Z" fill="#B7D2F3"/>
<path d="M181.52 368.545H123.879V367.917H181.52V368.545Z" fill="#B7D2F3"/>
<path d="M158.609 315.364H147.912C147.393 315.364 146.969 314.94 146.969 314.422C146.969 313.903 147.393 313.479 147.912 313.479H158.609C159.128 313.479 159.553 313.903 159.553 314.422C159.553 314.94 159.128 315.364 158.609 315.364Z" fill="#B7D2F3"/>
<path d="M158.609 344.08H147.912C147.393 344.08 146.969 343.656 146.969 343.138C146.969 342.619 147.393 342.195 147.912 342.195H158.609C159.128 342.195 159.553 342.619 159.553 343.138C159.553 343.656 159.128 344.08 158.609 344.08Z" fill="#B7D2F3"/>
<path d="M158.609 374.014H147.912C147.393 374.014 146.969 373.59 146.969 373.072C146.969 372.554 147.393 372.13 147.912 372.13H158.609C159.128 372.13 159.553 372.554 159.553 373.072C159.553 373.59 159.128 374.014 158.609 374.014Z" fill="#B7D2F3"/>
<path d="M323.802 288.476C317.628 299.204 309.862 303.345 309.862 303.345L277.121 302.236C277.121 302.236 328.512 280.292 323.802 288.476Z" fill="#233862"/>
<path d="M363.651 395.06C363.302 398.444 368.017 399.318 373.484 399.649C378.953 399.98 377.287 401.081 384.77 402.516C392.253 403.952 395.28 401.936 395.833 400.93C396.326 400.039 392.855 398.598 389.158 396.972C388.692 396.769 388.226 396.56 387.76 396.351C383.599 394.471 381.293 390.702 378.071 387.197C375.019 383.876 372.2 373.319 372.2 373.319L362.035 371.038C362.035 371.038 364.794 380.542 365.744 384.597C366.302 386.982 365.412 389.632 364.625 391.648C364.201 392.745 363.772 393.868 363.651 395.06Z" fill="#FFB17C"/>
<path d="M373.485 399.649C378.953 399.979 377.287 401.08 384.77 402.516C392.253 403.952 395.28 401.936 395.833 400.93C396.326 400.038 392.855 398.598 389.158 396.972L389.099 397.034C389.099 397.034 383.808 398.765 377.741 397.048C372.796 395.65 368.032 392.64 364.626 391.647C364.201 392.744 363.773 393.867 363.651 395.06C363.302 398.444 368.017 399.318 373.485 399.649Z" fill="#302F2F"/>
<path d="M348.25 277.486C342.781 273.652 306.598 266.816 288.134 264.839L267.725 247.152C267.725 247.152 250.353 272.84 250.216 292.49C250.151 301.653 254.379 302.563 254.38 302.565C254.38 302.565 319.804 303.05 322.672 303.345C327.366 303.828 333.558 315.503 335.106 326.136C336.653 336.769 363.935 380.017 363.935 380.017C363.935 380.017 369.625 381.838 372.256 381.683C375.085 381.518 376.395 380.571 376.395 380.571C376.395 380.571 360.586 286.133 348.25 277.486Z" fill="#233862"/>
<path d="M346.729 395.06C346.38 398.444 351.095 399.318 356.563 399.649C362.031 399.98 360.365 401.081 367.848 402.516C375.331 403.952 378.358 401.936 378.911 400.93C379.404 400.039 375.934 398.598 372.236 396.972C371.77 396.769 371.305 396.56 370.839 396.351C366.678 394.471 364.372 390.702 361.149 387.197C358.097 383.876 355.279 373.319 355.279 373.319L345.113 371.038C345.113 371.038 347.872 380.542 348.822 384.597C349.38 386.982 348.49 389.632 347.703 391.648C347.279 392.745 346.851 393.868 346.729 395.06Z" fill="#FFB17C"/>
<path d="M356.563 399.649C362.031 399.979 360.365 401.08 367.848 402.516C375.331 403.952 378.358 401.936 378.911 400.93C379.404 400.038 375.934 398.598 372.236 396.972L372.177 397.034C372.177 397.034 366.886 398.765 360.819 397.048C355.874 395.65 351.11 392.64 347.703 391.647C347.279 392.744 346.851 393.867 346.729 395.06C346.38 398.444 351.095 399.318 356.563 399.649Z" fill="#4B4545"/>
<path d="M331.176 277.486C326.424 274.155 312.132 271.573 296.355 269.656C291.993 269.126 288.412 265.96 287.347 261.704L250.651 247.152C250.651 247.152 233.279 272.84 233.141 292.49C233.077 301.653 237.305 302.563 237.306 302.565C237.306 302.565 302.73 303.05 305.598 303.345C310.292 303.828 316.484 315.503 318.032 326.136C319.579 336.769 346.861 380.017 346.861 380.017C346.861 380.017 352.55 381.838 355.181 381.683C358.011 381.518 359.321 380.571 359.321 380.571C359.321 380.571 343.512 286.133 331.176 277.486Z" fill="#2B478B"/>
<path d="M278.961 193.295C279.027 193.329 272.333 196.368 267.501 194.775C262.956 193.279 258.952 186.447 259.016 186.437C260.989 186.152 262.995 184.209 263.555 172.695L264.428 172.915L279.118 176.621C279.118 176.621 278.537 181.267 278.297 185.66C278.095 189.347 278.136 192.858 278.961 193.295Z" fill="#FFB17C"/>
<path d="M279.119 176.622C279.119 176.622 279.119 177.578 278.57 181.9C270.262 179.808 266.599 177.058 264.016 173.91L279.119 176.622Z" fill="#906200"/>
<path d="M282.252 177.206C282.252 177.206 262.827 180.363 261.044 168.256C259.26 156.149 255.552 148.403 267.879 145.875C280.206 143.348 283.302 147.613 284.882 151.509C286.461 155.406 287.259 176.072 282.252 177.206Z" fill="#FFB17C"/>
<path d="M282.272 145.368C282.272 145.368 273.451 159.27 265.576 162.562C257.701 165.854 253.832 164.183 253.832 164.183C253.832 164.183 257.415 158.76 258.348 151.478C258.623 149.332 260.024 147.492 262.036 146.687C267.687 144.428 278.618 140.865 282.272 145.368Z" fill="#233862"/>
<path d="M274.523 146.712C274.523 146.712 279.694 149.359 281.823 151.839C283.878 154.232 286.251 160.726 286.082 163.643C286.082 163.643 288.632 149.666 283.32 144.861C277.687 139.767 274.523 146.712 274.523 146.712Z" fill="#233862"/>
<path d="M294.503 222.873C293.913 262.292 294.341 254.055 290.022 257.795C288.981 258.696 286.056 259.232 282.205 259.486C270.098 260.289 248.815 258.298 248.005 256.064C245.212 248.335 247.184 245.933 244.854 234.1C244.611 232.842 244.311 231.48 243.958 229.996C242.015 221.869 235.643 195.237 240.03 191.809C251.466 182.874 260.601 184.603 261.185 184.949C277.675 194.722 278.255 186.539 278.255 186.539C278.255 186.539 294.792 203.646 294.503 222.873Z" fill="white"/>
<path d="M278.254 186.539C278.254 186.539 295.13 189.395 297.123 196.689C299.115 203.982 310.84 246.857 310.84 246.857C310.84 246.857 302.215 248.404 298.23 244.426C294.245 240.448 284.364 207.518 284.364 207.518L278.254 186.539Z" fill="white"/>
<path d="M282.202 259.486C270.095 260.288 248.812 258.297 248.003 256.063C245.21 248.334 247.181 245.933 244.852 234.1L250.691 217.684C250.691 217.684 249.726 235.964 255.126 240.772C260.52 245.581 277.236 250.054 279.861 254.072C281.127 256 281.96 257.933 282.202 259.486Z" fill="#EBF3FF"/>
<path d="M309.01 258.563H275.215C275.215 257.078 276.421 255.874 277.909 255.874H309.01V258.563Z" fill="#B11D19"/>
<path d="M308.91 221.819H361.159L348.627 258.564H296.039L308.91 221.819Z" fill="#B11D19"/>
<path d="M361.929 221.818L349.397 258.563H296.809L309.681 221.818H361.929Z" fill="#F03F74"/>
<path d="M333.762 239.852C333.437 241.256 332.034 242.394 330.628 242.394C329.221 242.394 328.344 241.256 328.669 239.852C328.994 238.448 330.397 237.31 331.803 237.31C333.21 237.31 334.086 238.448 333.762 239.852Z" fill="white"/>
<path d="M263.533 266.83H492.505C493.467 266.83 494.248 266.051 494.248 265.089V260.304C494.248 259.343 493.467 258.563 492.505 258.563H263.533C262.57 258.563 261.789 259.343 261.789 260.304V265.089C261.789 266.051 262.57 266.83 263.533 266.83Z" fill="#373535"/>
<path d="M498.112 403.002L498.21 402.99C499.383 402.846 500.214 401.801 500.065 400.656L479.661 262.77L472.191 262.983L496.198 401.615C496.352 402.503 497.196 403.115 498.112 403.002Z" fill="#373535"/>
<path d="M255.865 403.002L255.767 402.99C254.594 402.846 253.764 401.801 253.912 400.656L274.316 262.77L281.786 262.983L257.779 401.615C257.625 402.503 256.781 403.115 255.865 403.002Z" fill="#373535"/>
<path d="M303.104 403.002L303.005 402.99C301.832 402.846 301.002 401.801 301.15 400.656L321.554 262.77L329.024 262.983L305.017 401.615C304.863 402.503 304.019 403.115 303.104 403.002Z" fill="#373535"/>
<path d="M680.004 404.138H45.8592C45.3824 404.138 44.9922 403.748 44.9922 403.272V402.565C44.9922 402.089 45.3824 401.699 45.8592 401.699H680.004C680.481 401.699 680.871 402.089 680.871 402.565V403.272C680.871 403.748 680.481 404.138 680.004 404.138Z" fill="#272626"/>
<path d="M283.941 253.859C283.941 253.859 286.459 257.071 287.281 257.452C288.104 257.833 288.633 257.734 288.633 257.734L286.933 254.711L283.941 253.859Z" fill="#FFB17C"/>
<path d="M282.184 250.018L289.476 253.511C289.476 253.511 289.169 254.018 288.273 253.982C287.377 253.945 285.113 253.131 285.113 253.131L282.184 250.018Z" fill="#FFB17C"/>
<path d="M268.532 251.704C268.532 251.704 280.464 248.993 282.396 250.042C284.328 251.091 289.057 254.924 289.653 256.262C290.249 257.6 285.357 255.263 283.768 254.846C282.738 254.575 280.037 255.527 278.699 255.979C273.071 257.881 269.612 256.932 269.612 256.932L268.532 251.704Z" fill="#FFB17C"/>
<path d="M224.628 243.327C224.628 243.327 220.492 250.94 226.593 256.379C235.692 264.49 272.135 258.202 272.135 258.202C272.135 258.202 273.318 252.683 271.672 250.014C270.027 247.344 241.939 241.902 240.146 241.239C238.509 240.633 226.534 240.471 224.628 243.327Z" fill="white"/>
<path d="M239.827 241.728C239.703 237.163 255.181 218.184 255.181 214.815C255.181 211.426 260.231 189.134 261.068 185.461C261.126 185.205 260.92 184.967 260.658 184.989C257.759 185.231 243.696 186.748 238.727 193.666C233.154 201.427 219.783 227.283 221.911 243.654C225.13 268.418 240.094 251.583 239.827 241.728Z" fill="white"/>
<path d="M127.822 242.173C127.822 242.173 139.929 235.405 134.279 226.219C134.279 226.219 129.759 220.578 124.916 219.128C124.916 219.128 127.499 232.826 124.916 233.148C122.333 233.471 123.14 217.678 123.14 217.678C123.14 217.678 110.388 211.554 105.384 212.037C105.384 212.037 113.294 225.413 110.711 225.091C108.128 224.769 99.25 211.232 99.25 211.232C99.25 211.232 86.1745 208.814 84.0762 216.55C81.9776 224.285 85.3675 228.153 87.3045 228.636C89.2417 229.12 101.671 228.958 101.348 230.57C101.025 232.182 92.6316 234.76 87.9502 233.31C87.9502 233.31 93.1158 246.041 99.8955 245.396C106.675 244.752 108.774 240.561 112.971 240.239C117.168 239.917 120.235 241.045 118.136 242.173C116.038 243.301 108.935 242.543 105.545 245.42C102.155 248.297 99.4113 250.07 105.707 251.359C112.002 252.648 123.302 251.842 125.562 247.008L127.822 242.173Z" fill="#578B71"/>
<path d="M90.0469 218.967C90.0469 218.967 123.946 229.925 127.82 242.173C127.82 242.173 127.658 247.652 131.048 253.937V256.354C131.048 256.354 127.497 248.135 125.56 247.007C125.56 247.007 133.147 236.371 90.0469 218.967Z" fill="#C7DBF4"/>
<path d="M131.049 253.937C131.049 253.937 136.277 261.862 133.297 271.51L131.952 271.149C131.952 271.149 133.257 260.523 130.522 255.179C127.787 249.835 131.049 253.937 131.049 253.937Z" fill="#C7DBF4"/>
<path d="M143.508 238.02C143.508 238.02 126.37 231.639 131.875 218.536C131.875 218.536 136.624 210.278 142.64 207.415C142.64 207.415 142.041 225.779 145.471 225.679C148.9 225.579 144.661 205.168 144.661 205.168C144.661 205.168 160.037 194.625 166.653 194.248C166.653 194.248 159.05 213.264 162.349 212.324C165.649 211.385 174.481 191.964 174.481 191.964C174.481 191.964 191.026 186.184 195.321 195.839C199.617 205.493 195.982 211.214 193.556 212.234C191.13 213.253 174.906 215.544 175.652 217.578C176.397 219.613 187.853 221.282 193.658 218.451C193.658 218.451 189.499 236.075 180.537 236.6C171.575 237.124 167.996 232.088 162.463 232.512C156.931 232.937 153.163 235.024 156.125 236.071C159.086 237.119 168.185 234.701 173.182 237.767C178.179 240.833 182.112 242.59 174.171 245.536C166.23 248.482 151.347 249.706 147.427 243.863L143.508 238.02Z" fill="#7CC97D"/>
<path d="M188.028 200.189C188.028 200.189 146.081 221.285 143.506 238.02C143.506 238.02 144.823 245.125 141.676 253.994L142.164 257.143C142.164 257.143 145.131 245.722 147.427 243.863C147.427 243.863 135.396 231.534 188.028 200.189Z" fill="#D3E3F8"/>
<path d="M141.678 253.994C141.678 253.994 136.467 265.37 142.297 277.338L143.977 276.598C143.977 276.598 140.131 263.018 142.615 255.506C145.099 247.994 141.678 253.994 141.678 253.994Z" fill="#D3E3F8"/>
<path d="M166.593 256.625C166.593 256.625 158.982 247.761 166.123 242.131C166.123 242.131 171.34 238.978 175.593 239.234C175.593 239.234 169.566 249.323 171.516 250.327C173.465 251.33 177.42 238.601 177.42 238.601C177.42 238.601 189.291 237.452 193.109 239.285C193.109 239.285 182.961 247.575 185.099 248.069C187.236 248.562 198.197 240.425 198.197 240.425C198.197 240.425 209.245 242.302 208.656 249.03C208.067 255.759 204.26 257.837 202.587 257.658C200.914 257.479 191.126 253.749 190.913 255.118C190.7 256.486 196.591 260.959 200.717 261.168C200.717 261.168 192.928 269.744 187.751 267.269C182.574 264.794 182.132 260.871 178.905 259.399C175.678 257.928 172.923 257.931 174.255 259.432C175.588 260.933 181.429 262.392 183.274 265.65C185.119 268.909 186.775 271.107 181.419 270.303C176.063 269.498 167.357 265.586 166.975 261.105L166.593 256.625Z" fill="#61A27D"/>
<path d="M203.227 249.212C203.227 249.212 173.219 248.058 166.593 256.626C166.593 256.626 165.127 261.007 160.617 264.998L159.914 266.91C159.914 266.91 165.114 261.437 166.975 261.106C166.975 261.106 164.065 250.491 203.227 249.212Z" fill="#C7DBF4"/>
<path d="M160.619 264.997C160.619 264.997 154.178 269.753 153.73 278.25L154.899 278.354C154.899 278.354 156.957 269.568 160.675 266.132C164.393 262.697 160.619 264.997 160.619 264.997Z" fill="#C7DBF4"/>
<path d="M145.738 300.112C163.003 300.112 176.999 286.139 176.999 268.903H114.477C114.477 286.139 128.473 300.112 145.738 300.112Z" fill="#2E456B"/>
<path d="M177.432 301.7H114.047C114.047 299.573 115.774 297.85 117.904 297.85H173.575C175.705 297.85 177.432 299.573 177.432 301.7Z" fill="#6D91ED"/>
<path d="M177.71 269.861H113.449V268.903H177.71V269.861Z" fill="#6D91ED"/>
<path d="M424.531 402.444H465.021C466.968 400.071 466.251 391.317 465.956 388.458C465.895 387.883 465.853 387.547 465.853 387.547C465.853 387.547 452.027 376.506 450.128 384.96C450.07 385.226 450 385.485 449.923 385.741C447.53 393.648 436.798 397.242 430.601 398.242C426.571 398.895 425.082 400.986 424.531 402.444Z" fill="#A54F15"/>
<path d="M535.012 271.099C533.55 271.099 465.655 283.825 454.425 297.703C448.815 304.637 447.98 384.707 447.98 384.707C447.98 384.707 454.922 393.298 469.912 388.31C469.912 388.31 480.903 333.527 480.091 316.911C479.867 312.316 526.48 316.246 535.012 314.042C543.543 311.837 564.389 293.309 559.796 284.282C555.202 275.256 535.012 271.099 535.012 271.099Z" fill="#384B63"/>
<path d="M454.716 251.491C454.716 251.491 441.021 251.676 437.782 253.062C434.543 254.447 427.973 257.628 429.731 258.116C431.49 258.605 439.879 257.915 441.692 258.192C443.504 258.469 445.74 258.116 446.851 258.116C447.961 258.116 453.141 258.116 453.141 258.116L454.716 251.491Z" fill="#FFB17C"/>
<path d="M528.249 179.78C528.249 179.78 517.824 183.006 507.552 211.244C497.281 239.481 493.38 241.006 489.646 242.114C485.913 243.223 453.141 249.736 453.141 249.736V258.116H503.637C503.637 258.116 522.572 240.134 528.249 228.029C533.925 215.924 528.249 179.78 528.249 179.78Z" fill="#F87D18"/>
<path d="M406.637 402.444H447.126C449.073 400.071 448.356 391.317 448.061 388.458C448 387.883 447.959 387.547 447.959 387.547C447.959 387.547 434.133 376.506 432.233 384.96C432.176 385.226 432.105 385.485 432.028 385.741C429.636 393.648 418.903 397.242 412.706 398.242C408.677 398.895 407.188 400.986 406.637 402.444Z" fill="#90420D"/>
<path d="M515.004 271.099C513.542 271.099 445.647 283.825 434.417 297.703C428.807 304.637 427.973 384.707 427.973 384.707C427.973 384.707 434.914 393.298 449.904 388.31C449.904 388.31 460.895 333.527 460.083 316.911C459.859 312.316 506.472 316.246 515.004 314.042C523.535 311.837 544.381 293.309 539.788 284.282C535.195 275.256 515.004 271.099 515.004 271.099Z" fill="#516C8E"/>
<path d="M519.253 188.729C524.137 188.327 529.258 187.027 533.684 185.593C539.217 183.801 543.677 181.182 540.803 176.133C538.154 171.481 533.868 161.087 534.157 152.477L523.862 160.759L516.869 166.385C516.869 166.385 516.898 169.701 517.662 175.514C517.802 176.573 517.965 177.717 518.158 178.94C518.314 179.927 517.859 180.913 517.008 181.44C516.955 181.473 516.902 181.506 516.85 181.539C513.375 183.719 515.162 189.067 519.253 188.729Z" fill="#FFB17C"/>
<path d="M516.869 165.016C516.869 165.016 516.511 166.22 517.126 170.667C523.361 169.652 529.189 164.687 529.189 164.687C526.015 163.817 524.86 160.393 522.496 160.712L516.869 165.016Z" fill="#906200"/>
<path d="M560.115 200.527C556.648 186.598 547.068 171.984 540.59 171.996C529.552 172.017 513.684 174.925 507.277 190.703C502.558 202.325 496.264 269.172 503.377 273.927C519.638 284.795 557.331 306.981 564.027 284.356C570.162 263.626 566.131 224.7 560.115 200.527Z" fill="#F03F74"/>
<path d="M541.704 172.13L539.204 166.51C539.204 166.51 516.834 168.331 513.074 181.042C513.074 181.042 530.415 172.403 541.704 172.13Z" fill="white"/>
<path d="M596.013 401.94L596.168 401.937C597.431 401.914 598.406 400.883 598.287 399.698L589.861 315.683L582.508 316.338L594.607 400.805C594.702 401.465 595.307 401.953 596.013 401.94Z" fill="#8BB4F4"/>
<path d="M552.642 401.94L552.796 401.937C554.059 401.914 555.035 400.883 554.916 399.698L546.49 315.683L539.137 316.338L551.236 400.805C551.331 401.465 551.936 401.953 552.642 401.94Z" fill="#8BB4F4"/>
<path d="M471.214 401.94L471.059 401.937C469.796 401.914 468.821 400.883 468.94 399.698L477.366 315.683L484.719 316.338L472.619 400.805C472.525 401.465 471.92 401.953 471.214 401.94Z" fill="#73A1E4"/>
<path d="M593.633 303.781L601.631 233.61C602.679 223.498 599.289 213.596 584.673 212.83L558.958 211.267C543.717 210.639 536.836 223.302 534.906 233.051L519.641 310.186L593.633 303.781Z" fill="#8BB4F4"/>
<path d="M589.334 316.911H475.204C472.911 316.911 471.035 315.038 471.035 312.749V307.624C471.035 305.335 472.911 303.462 475.204 303.462H593.503V312.749C593.503 315.038 591.627 316.911 589.334 316.911Z" fill="#73A1E4"/>
<path d="M590.267 316.911H522.878C521.098 316.911 519.641 315.457 519.641 313.679V306.694C519.641 304.916 521.098 303.462 522.878 303.462H593.505V313.679C593.505 315.457 592.048 316.911 590.267 316.911Z" fill="#8BB4F4"/>
<path d="M512.292 163.901C512.292 163.901 536.193 168.332 538.729 153.428C541.265 138.525 546.058 129.059 530.906 125.6C515.753 122.141 511.813 127.324 509.754 132.093C507.696 136.862 506.141 162.364 512.292 163.901Z" fill="#FFB17C"/>
<path d="M506.353 125.412C505.255 128.991 507.927 133.428 512.524 134.958C519.35 137.23 517.672 145.611 520.764 145.555C523.856 145.499 525.192 140.804 527.88 144.626C530.173 147.887 525.786 151.618 526.049 153.388C526.501 156.425 531.133 162.71 535.419 162.48C539.706 162.251 548.105 142.089 546.623 135.775C545.141 129.461 538.859 122.712 532.812 121.684C526.764 120.654 518.291 123.11 516.346 123.073C514.4 123.036 506.947 123.478 506.353 125.412Z" fill="#2B478B"/>
<path d="M443.021 224.946C443.021 224.946 438.219 221.806 433.663 221.343C431.064 221.079 428.533 220.721 426.993 220.248C422.753 218.946 414.083 211.775 414.68 210.868C416.593 207.963 426.601 213.542 428.279 212.832C429.957 212.121 424.833 208.787 426.514 207.473C427.393 206.787 429.642 209.957 431.385 210.214C433.744 210.562 435.708 213.788 436.42 213.932C437.805 214.212 443.994 218.43 443.994 218.43L443.021 224.946Z" fill="#FFB17C"/>
<path d="M536.235 189.121C532.756 181.075 522.492 178.661 515.791 184.317C512.167 187.376 507.753 191.703 502.456 197.814C482.769 220.533 478.581 220.567 474.697 220.271C470.813 219.976 437.873 214.375 437.873 214.375C437.873 214.375 436.25 215.675 435.348 217.706C434.142 220.419 434.877 222.205 434.877 222.205C433.565 221.431 446.781 229.76 453.324 233.029C461.965 237.347 474.877 241.2 480.016 242.654C481.473 243.066 483.022 242.98 484.424 242.41C491.841 239.396 516.717 228.5 536.596 210.535C541.834 205.802 539.462 196.58 536.235 189.121Z" fill="#F03F74"/>
</g>
</g>
<defs>
<clipPath id="clip0_2478_17081">
<rect width="718" height="448" fill="white"/>
</clipPath>
</defs>
</svg>
