<svg width="20" height="20" viewBox="0 0 20 20" fill="none" xmlns="http://www.w3.org/2000/svg">
<path d="M16.5991 4.23595L13.4859 1.12274C13.1524 0.788514 12.6999 0.600356 12.2278 0.599609H4.65627C4.18369 0.601155 3.73096 0.789821 3.39714 1.12433C3.06332 1.45884 2.87558 1.91195 2.875 2.38453V17.8191C2.87519 18.2914 3.06295 18.7442 3.39698 19.0781C3.73101 19.412 4.18398 19.5996 4.65627 19.5996H15.3417C15.8139 19.5994 16.2667 19.4118 16.6005 19.0779C16.9344 18.744 17.1221 18.2912 17.1223 17.8191V5.49701C17.1214 5.02404 16.9333 4.57064 16.5991 4.23595ZM15.7604 5.07836C15.8365 5.15393 15.8903 5.24896 15.916 5.35308H12.3732V1.8088C12.4773 1.83449 12.5723 1.88833 12.6479 1.96442L15.7604 5.07836ZM15.3417 18.4123H4.65627C4.49898 18.412 4.34823 18.3493 4.23693 18.2382C4.12564 18.127 4.06285 17.9764 4.06227 17.8191V2.38453C4.06285 2.22724 4.12564 2.07657 4.23693 1.96541C4.34823 1.85425 4.49898 1.79165 4.65627 1.79126H11.1866V5.64971C11.1863 5.76676 11.2092 5.8827 11.2538 5.99089C11.2985 6.09908 11.3641 6.19737 11.4468 6.28013C11.5296 6.3629 11.6279 6.42849 11.7361 6.47314C11.8443 6.5178 11.9602 6.54064 12.0773 6.54035H15.9357V17.8191C15.9351 17.9764 15.8723 18.127 15.7611 18.2382C15.6498 18.3493 15.499 18.412 15.3417 18.4123ZM13.5604 9.35912C13.5601 9.24123 13.5131 9.12827 13.4297 9.04491C13.3463 8.96155 13.2334 8.91455 13.1155 8.91416H6.88177C6.76388 8.91455 6.65093 8.96155 6.56756 9.04491C6.4842 9.12827 6.4372 9.24123 6.43682 9.35912V9.65575C6.4372 9.77364 6.4842 9.88659 6.56756 9.96996C6.65093 10.0533 6.76388 10.1003 6.88177 10.1007H13.1148C13.2327 10.1003 13.3456 10.0533 13.429 9.96996C13.5123 9.88659 13.5593 9.77364 13.5597 9.65575L13.5604 9.35912ZM13.5604 11.7337C13.5601 11.6158 13.5131 11.5028 13.4297 11.4195C13.3463 11.3361 13.2334 11.2891 13.1155 11.2887H6.88177C6.76388 11.2891 6.65093 11.3361 6.56756 11.4195C6.4842 11.5028 6.4372 11.6158 6.43682 11.7337V12.0303C6.4372 12.1482 6.4842 12.2611 6.56756 12.3445C6.65093 12.4279 6.76388 12.4749 6.88177 12.4752H13.1148C13.2327 12.4749 13.3456 12.4279 13.429 12.3445C13.5123 12.2611 13.5593 12.1482 13.5597 12.0303L13.5604 11.7337ZM13.5604 14.1082C13.5601 13.9903 13.5131 13.8774 13.4297 13.794C13.3463 13.7106 13.2334 13.6636 13.1155 13.6632H6.88177C6.76388 13.6636 6.65093 13.7106 6.56756 13.794C6.4842 13.8774 6.4372 13.9903 6.43682 14.1082V14.4048C6.4372 14.5227 6.4842 14.6357 6.56756 14.719C6.65093 14.8024 6.76388 14.8494 6.88177 14.8498H13.1148C13.2327 14.8494 13.3456 14.8024 13.429 14.719C13.5123 14.6357 13.5593 14.5227 13.5597 14.4048L13.5604 14.1082Z" fill="#7A8DA8"/>
</svg>
