<svg width="16" height="16" viewBox="0 0 16 16" fill="none" xmlns="http://www.w3.org/2000/svg">
<path d="M7.9987 1.33301C6.68016 1.33301 5.39123 1.724 4.2949 2.45654C3.19857 3.18909 2.34409 4.23028 1.8395 5.44845C1.33492 6.66663 1.2029 8.00707 1.46013 9.30028C1.71737 10.5935 2.35231 11.7814 3.28466 12.7137C4.21701 13.6461 5.40489 14.281 6.6981 14.5382C7.99131 14.7955 9.33175 14.6635 10.5499 14.1589C11.7681 13.6543 12.8093 12.7998 13.5418 11.7035C14.2744 10.6071 14.6654 9.31822 14.6654 7.99967C14.6654 7.1242 14.4929 6.25729 14.1579 5.44845C13.8229 4.63961 13.3318 3.90469 12.7127 3.28563C12.0937 2.66657 11.3588 2.17551 10.5499 1.84048C9.74109 1.50545 8.87418 1.33301 7.9987 1.33301ZM7.9987 13.333C6.94387 13.333 5.91272 13.0202 5.03566 12.4342C4.1586 11.8481 3.47501 11.0152 3.07134 10.0407C2.66768 9.06611 2.56206 7.99376 2.76785 6.95919C2.97363 5.92463 3.48158 4.97432 4.22746 4.22844C4.97334 3.48256 5.92365 2.97461 6.95822 2.76882C7.99279 2.56303 9.06514 2.66865 10.0397 3.07232C11.0142 3.47598 11.8472 4.15957 12.4332 5.03663C13.0192 5.9137 13.332 6.94484 13.332 7.99967C13.332 9.41416 12.7701 10.7707 11.7699 11.7709C10.7697 12.7711 9.41319 13.333 7.9987 13.333Z" fill="#2EA254"/>
<path d="M9.7987 5.59301L7.2787 8.92634L6.19203 7.51967C6.0833 7.37999 5.92352 7.28923 5.74786 7.26735C5.5722 7.24547 5.39505 7.29427 5.25537 7.40301C5.11569 7.51175 5.02492 7.67152 5.00304 7.84718C4.98117 8.02284 5.02996 8.19999 5.1387 8.33967L6.7587 10.413C6.82148 10.4925 6.90154 10.5566 6.99279 10.6005C7.08405 10.6444 7.18411 10.6669 7.28537 10.6663C7.38718 10.6661 7.48758 10.6425 7.57888 10.5975C7.67017 10.5524 7.74993 10.487 7.81203 10.4063L10.8587 6.40634C10.9666 6.26489 11.0138 6.08639 10.99 5.91011C10.9663 5.73382 10.8735 5.5742 10.732 5.46634C10.5906 5.35849 10.4121 5.31124 10.2358 5.33499C10.0595 5.35875 9.89989 5.45156 9.79203 5.59301H9.7987Z" fill="#2EA254"/>
</svg>
