<svg width="92" height="90" viewBox="0 0 92 90" fill="none" xmlns="http://www.w3.org/2000/svg">
<path d="M46 0L0 28.479V41.4024L2.13175 40.0809L4.18182 38.8107V90H87.8182V38.8134L92 41.4024V28.479L46 0ZM46 3.25782L89.2121 30.0108V36.4212L46 9.66559L2.78788 36.4212V30.0108L46 3.25782ZM46 12.9234L85.0303 37.0874V80.3344C84.6606 80.3344 84.3061 80.4799 84.0446 80.7388C83.7832 80.9978 83.6364 81.349 83.6364 81.7152C83.6364 82.0814 83.7832 82.4326 84.0446 82.6916C84.3061 82.9505 84.6606 83.096 85.0303 83.096V87.2384H6.9697V83.096C7.33939 83.096 7.69395 82.9505 7.95536 82.6916C8.21677 82.4326 8.36364 82.0814 8.36364 81.7152C8.36364 81.349 8.21677 80.9978 7.95536 80.7388C7.69395 80.4799 7.33939 80.3344 6.9697 80.3344V37.0847L46 12.9234ZM45.4255 34.7816C44.8978 34.8022 44.3654 34.8517 43.8274 34.9326C36.9349 35.9677 32.0156 41.7844 32.0633 48.6758C32.0979 53.7548 34.869 58.0055 39.0466 60.3371V66.5264C39.0466 68.5793 40.5935 70.2911 42.5832 70.6041C42.8999 72.1884 44.3081 73.3819 46 73.3819C47.6919 73.3819 49.1001 72.1878 49.4168 70.6041C51.4078 70.2922 52.9561 68.5802 52.9561 66.5264V60.3371C57.1618 57.9908 59.9394 53.6967 59.9394 48.576C59.9394 41.2982 54.1941 35.32 46.991 34.8058C46.4765 34.7691 45.9533 34.7609 45.4255 34.7816ZM23.697 37.5297C22.9275 37.5297 22.303 38.1483 22.303 38.9105C22.303 39.6727 22.9275 40.2913 23.697 40.2913C24.4664 40.2913 25.0909 39.6727 25.0909 38.9105C25.0909 38.1483 24.4664 37.5297 23.697 37.5297ZM68.303 37.5297C67.5336 37.5297 66.9091 38.1483 66.9091 38.9105C66.9091 39.6727 67.5336 40.2913 68.303 40.2913C69.0725 40.2913 69.697 39.6727 69.697 38.9105C69.697 38.1483 69.0725 37.5297 68.303 37.5297ZM45.5399 37.5378C51.9497 37.2764 57.1515 42.3077 57.1515 48.576C57.1515 53.0244 54.7434 56.5792 50.9632 58.3603L50.1682 58.7352V61.0032H46V63.7648H50.1682V66.5264C50.1682 67.3066 49.5619 67.9072 48.7743 67.9072H43.2285C42.4408 67.9072 41.8345 67.3066 41.8345 66.5264V58.7379L41.0395 58.363C37.2826 56.5916 34.8812 53.0676 34.8512 48.657H34.8485C34.8097 43.0577 38.6691 38.499 44.244 37.6618C44.6808 37.5961 45.1126 37.5552 45.5399 37.5378ZM27.8788 40.2913C27.1093 40.2913 26.4848 40.9099 26.4848 41.6721C26.4848 42.4343 27.1093 43.0529 27.8788 43.0529C28.6482 43.0529 29.2727 42.4343 29.2727 41.6721C29.2727 40.9099 28.6482 40.2913 27.8788 40.2913ZM64.1212 40.2913C63.3518 40.2913 62.7273 40.9099 62.7273 41.6721C62.7273 42.4343 63.3518 43.0529 64.1212 43.0529C64.8907 43.0529 65.5152 42.4343 65.5152 41.6721C65.5152 40.9099 64.8907 40.2913 64.1212 40.2913ZM20.9091 47.1953C20.1396 47.1953 19.5152 47.8139 19.5152 48.576C19.5152 49.3383 20.1396 49.9568 20.9091 49.9568C21.6785 49.9568 22.303 49.3383 22.303 48.576C22.303 47.8139 21.6785 47.1953 20.9091 47.1953ZM26.4848 47.1953C25.7154 47.1953 25.0909 47.8139 25.0909 48.576C25.0909 49.3383 25.7154 49.9568 26.4848 49.9568C27.2543 49.9568 27.8788 49.3383 27.8788 48.576C27.8788 47.8139 27.2543 47.1953 26.4848 47.1953ZM65.5152 47.1953C64.7457 47.1953 64.1212 47.8139 64.1212 48.576C64.1212 49.3383 64.7457 49.9568 65.5152 49.9568C66.2846 49.9568 66.9091 49.3383 66.9091 48.576C66.9091 47.8139 66.2846 47.1953 65.5152 47.1953ZM71.0909 47.1953C70.3215 47.1953 69.697 47.8139 69.697 48.576C69.697 49.3383 70.3215 49.9568 71.0909 49.9568C71.8604 49.9568 72.4848 49.3383 72.4848 48.576C72.4848 47.8139 71.8604 47.1953 71.0909 47.1953ZM27.8788 54.0992C27.1093 54.0992 26.4848 54.7178 26.4848 55.48C26.4848 56.2422 27.1093 56.8608 27.8788 56.8608C28.6482 56.8608 29.2727 56.2422 29.2727 55.48C29.2727 54.7178 28.6482 54.0992 27.8788 54.0992ZM64.1212 54.0992C63.3518 54.0992 62.7273 54.7178 62.7273 55.48C62.7273 56.2422 63.3518 56.8608 64.1212 56.8608C64.8907 56.8608 65.5152 56.2422 65.5152 55.48C65.5152 54.7178 64.8907 54.0992 64.1212 54.0992ZM23.697 56.8608C22.9275 56.8608 22.303 57.4794 22.303 58.2416C22.303 59.0038 22.9275 59.6224 23.697 59.6224C24.4664 59.6224 25.0909 59.0038 25.0909 58.2416C25.0909 57.4794 24.4664 56.8608 23.697 56.8608ZM68.303 56.8608C67.5336 56.8608 66.9091 57.4794 66.9091 58.2416C66.9091 59.0038 67.5336 59.6224 68.303 59.6224C69.0725 59.6224 69.697 59.0038 69.697 58.2416C69.697 57.4794 69.0725 56.8608 68.303 56.8608ZM12.5455 80.3344C12.1758 80.3344 11.8212 80.4799 11.5598 80.7388C11.2984 80.9978 11.1515 81.349 11.1515 81.7152C11.1515 82.0814 11.2984 82.4326 11.5598 82.6916C11.8212 82.9505 12.1758 83.096 12.5455 83.096C12.9151 83.096 13.2697 82.9505 13.5311 82.6916C13.7925 82.4326 13.9394 82.0814 13.9394 81.7152C13.9394 81.349 13.7925 80.9978 13.5311 80.7388C13.2697 80.4799 12.9151 80.3344 12.5455 80.3344ZM18.1212 80.3344C17.7515 80.3344 17.397 80.4799 17.1355 80.7388C16.8741 80.9978 16.7273 81.349 16.7273 81.7152C16.7273 82.0814 16.8741 82.4326 17.1355 82.6916C17.397 82.9505 17.7515 83.096 18.1212 83.096C18.4909 83.096 18.8455 82.9505 19.1069 82.6916C19.3683 82.4326 19.5152 82.0814 19.5152 81.7152C19.5152 81.349 19.3683 80.9978 19.1069 80.7388C18.8455 80.4799 18.4909 80.3344 18.1212 80.3344ZM23.697 80.3344C23.3273 80.3344 22.9727 80.4799 22.7113 80.7388C22.4499 80.9978 22.303 81.349 22.303 81.7152C22.303 82.0814 22.4499 82.4326 22.7113 82.6916C22.9727 82.9505 23.3273 83.096 23.697 83.096C24.0667 83.096 24.4212 82.9505 24.6826 82.6916C24.944 82.4326 25.0909 82.0814 25.0909 81.7152C25.0909 81.349 24.944 80.9978 24.6826 80.7388C24.4212 80.4799 24.0667 80.3344 23.697 80.3344ZM29.2727 80.3344C28.903 80.3344 28.5485 80.4799 28.2871 80.7388C28.0256 80.9978 27.8788 81.349 27.8788 81.7152C27.8788 82.0814 28.0256 82.4326 28.2871 82.6916C28.5485 82.9505 28.903 83.096 29.2727 83.096C29.6424 83.096 29.997 82.9505 30.2584 82.6916C30.5198 82.4326 30.6667 82.0814 30.6667 81.7152C30.6667 81.349 30.5198 80.9978 30.2584 80.7388C29.997 80.4799 29.6424 80.3344 29.2727 80.3344ZM34.8485 80.3344C34.4788 80.3344 34.1242 80.4799 33.8628 80.7388C33.6014 80.9978 33.4545 81.349 33.4545 81.7152C33.4545 82.0814 33.6014 82.4326 33.8628 82.6916C34.1242 82.9505 34.4788 83.096 34.8485 83.096C35.2182 83.096 35.5727 82.9505 35.8341 82.6916C36.0956 82.4326 36.2424 82.0814 36.2424 81.7152C36.2424 81.349 36.0956 80.9978 35.8341 80.7388C35.5727 80.4799 35.2182 80.3344 34.8485 80.3344ZM40.4242 80.3344C40.0545 80.3344 39.7 80.4799 39.4386 80.7388C39.1772 80.9978 39.0303 81.349 39.0303 81.7152C39.0303 82.0814 39.1772 82.4326 39.4386 82.6916C39.7 82.9505 40.0545 83.096 40.4242 83.096C40.7939 83.096 41.1485 82.9505 41.4099 82.6916C41.6713 82.4326 41.8182 82.0814 41.8182 81.7152C41.8182 81.349 41.6713 80.9978 41.4099 80.7388C41.1485 80.4799 40.7939 80.3344 40.4242 80.3344ZM46 80.3344C45.6303 80.3344 45.2757 80.4799 45.0143 80.7388C44.7529 80.9978 44.6061 81.349 44.6061 81.7152C44.6061 82.0814 44.7529 82.4326 45.0143 82.6916C45.2757 82.9505 45.6303 83.096 46 83.096C46.3697 83.096 46.7243 82.9505 46.9857 82.6916C47.2471 82.4326 47.3939 82.0814 47.3939 81.7152C47.3939 81.349 47.2471 80.9978 46.9857 80.7388C46.7243 80.4799 46.3697 80.3344 46 80.3344ZM51.5758 80.3344C51.2061 80.3344 50.8515 80.4799 50.5901 80.7388C50.3287 80.9978 50.1818 81.349 50.1818 81.7152C50.1818 82.0814 50.3287 82.4326 50.5901 82.6916C50.8515 82.9505 51.2061 83.096 51.5758 83.096C51.9455 83.096 52.3 82.9505 52.5614 82.6916C52.8228 82.4326 52.9697 82.0814 52.9697 81.7152C52.9697 81.349 52.8228 80.9978 52.5614 80.7388C52.3 80.4799 51.9455 80.3344 51.5758 80.3344ZM57.1515 80.3344C56.7818 80.3344 56.4273 80.4799 56.1658 80.7388C55.9044 80.9978 55.7576 81.349 55.7576 81.7152C55.7576 82.0814 55.9044 82.4326 56.1658 82.6916C56.4273 82.9505 56.7818 83.096 57.1515 83.096C57.5212 83.096 57.8758 82.9505 58.1372 82.6916C58.3986 82.4326 58.5455 82.0814 58.5455 81.7152C58.5455 81.349 58.3986 80.9978 58.1372 80.7388C57.8758 80.4799 57.5212 80.3344 57.1515 80.3344ZM62.7273 80.3344C62.3576 80.3344 62.003 80.4799 61.7416 80.7388C61.4802 80.9978 61.3333 81.349 61.3333 81.7152C61.3333 82.0814 61.4802 82.4326 61.7416 82.6916C62.003 82.9505 62.3576 83.096 62.7273 83.096C63.097 83.096 63.4515 82.9505 63.7129 82.6916C63.9743 82.4326 64.1212 82.0814 64.1212 81.7152C64.1212 81.349 63.9743 80.9978 63.7129 80.7388C63.4515 80.4799 63.097 80.3344 62.7273 80.3344ZM68.303 80.3344C67.9333 80.3344 67.5788 80.4799 67.3174 80.7388C67.0559 80.9978 66.9091 81.349 66.9091 81.7152C66.9091 82.0814 67.0559 82.4326 67.3174 82.6916C67.5788 82.9505 67.9333 83.096 68.303 83.096C68.6727 83.096 69.0273 82.9505 69.2887 82.6916C69.5501 82.4326 69.697 82.0814 69.697 81.7152C69.697 81.349 69.5501 80.9978 69.2887 80.7388C69.0273 80.4799 68.6727 80.3344 68.303 80.3344ZM73.8788 80.3344C73.5091 80.3344 73.1545 80.4799 72.8931 80.7388C72.6317 80.9978 72.4848 81.349 72.4848 81.7152C72.4848 82.0814 72.6317 82.4326 72.8931 82.6916C73.1545 82.9505 73.5091 83.096 73.8788 83.096C74.2485 83.096 74.603 82.9505 74.8644 82.6916C75.1259 82.4326 75.2727 82.0814 75.2727 81.7152C75.2727 81.349 75.1259 80.9978 74.8644 80.7388C74.603 80.4799 74.2485 80.3344 73.8788 80.3344ZM79.4545 80.3344C79.0848 80.3344 78.7303 80.4799 78.4689 80.7388C78.2075 80.9978 78.0606 81.349 78.0606 81.7152C78.0606 82.0814 78.2075 82.4326 78.4689 82.6916C78.7303 82.9505 79.0848 83.096 79.4545 83.096C79.8242 83.096 80.1788 82.9505 80.4402 82.6916C80.7016 82.4326 80.8485 82.0814 80.8485 81.7152C80.8485 81.349 80.7016 80.9978 80.4402 80.7388C80.1788 80.4799 79.8242 80.3344 79.4545 80.3344Z" fill="#21255C"/>
</svg>
