<svg width="20" height="20" viewBox="0 0 20 20" fill="none" xmlns="http://www.w3.org/2000/svg">
<path d="M10 1.9878C11.102 1.9886 12.1586 2.42672 12.9379 3.20595C13.7171 3.98518 14.1552 5.04181 14.156 6.1438C14.1552 7.2458 13.7171 8.30243 12.9379 9.08166C12.1586 9.86089 11.102 10.299 10 10.2998C8.898 10.299 7.84137 9.86089 7.06214 9.08166C6.28291 8.30243 5.84479 7.2458 5.844 6.1438C5.84479 5.04181 6.28291 3.98518 7.06214 3.20595C7.84137 2.42672 8.898 1.9886 10 1.9878ZM14.75 13.8628C15.6944 13.8641 16.5997 14.2398 17.2676 14.9075C17.9355 15.5752 18.3114 16.4804 18.313 17.4248V18.6128H1.688V17.4248C1.68959 16.4806 2.06538 15.5755 2.73304 14.9078C3.4007 14.2402 4.30579 13.8644 5.25 13.8628C8.404 13.8628 7.75 14.4568 10 14.4568C12.25 14.4568 11.592 13.8628 14.75 13.8628ZM10 0.799805C8.58276 0.80007 7.22365 1.36318 6.22151 2.36532C5.21938 3.36746 4.65627 4.72657 4.656 6.1438C4.65627 7.56104 5.21938 8.92015 6.22151 9.92229C7.22365 10.9244 8.58276 11.4875 10 11.4878C11.4172 11.4875 12.7763 10.9244 13.7785 9.92229C14.7806 8.92015 15.3437 7.56104 15.344 6.1438C15.3437 4.72657 14.7806 3.36746 13.7785 2.36532C12.7763 1.36318 11.4172 0.80007 10 0.799805ZM14.75 12.6748C11.321 12.6748 12.115 13.2688 10 13.2688C7.885 13.2688 8.675 12.6748 5.25 12.6748C3.99022 12.6748 2.78204 13.1753 1.89124 14.066C1.00045 14.9568 0.5 16.165 0.5 17.4248V18.6128C0.499869 18.7688 0.530515 18.9233 0.590183 19.0674C0.649851 19.2116 0.737369 19.3425 0.847725 19.4528C0.95808 19.563 1.0891 19.6505 1.23329 19.71C1.37748 19.7696 1.532 19.8001 1.688 19.7998H18.313C18.4689 19.7999 18.6233 19.7693 18.7674 19.7097C18.9115 19.6501 19.0424 19.5627 19.1526 19.4524C19.2629 19.3422 19.3503 19.2113 19.4099 19.0672C19.4695 18.9231 19.5001 18.7687 19.5 18.6128V17.4248C19.5 16.165 18.9996 14.9568 18.1088 14.066C17.218 13.1753 16.0098 12.6748 14.75 12.6748Z" fill="#8294AE"/>
</svg>
